<?xml version='1.0' encoding='utf-8'?>
<svg xmlns="http://www.w3.org/2000/svg" width="1675" height="562" viewBox="0 0 1675 562"><defs /><g opacity="1.0" data-layer="hat-and-g"><g transform="translate(246.0 281.0) rotate(0) scale(1 1) translate(-196.0 -231.0)"><svg width="392" height="462" viewBox="0 0 392 462" preserveAspectRatio="none"><path d="M181.08 461.82 C180.43 461.78 178.69 461.68 177.22 461.6 C175.75 461.53 174.09 461.42 173.53 461.36 C172.98 461.3 171.54 461.19 170.34 461.13 C167.77 460.98 166.95 460.88 160.93 459.94 C160.11 459.81 159.23 459.68 158.97 459.65 C157.22 459.42 153.78 458.88 152.37 458.61 C152.01 458.53 151.32 458.41 150.83 458.32 C150.34 458.24 149.19 458.03 148.28 457.85 C147.36 457.68 146.18 457.46 145.66 457.37 C144.57 457.18 142.89 456.78 141.08 456.28 C140.4 456.08 138.9 455.7 137.75 455.42 C136.61 455.14 134.98 454.7 134.13 454.45 C133.28 454.2 132.23 453.89 131.81 453.77 C131.09 453.55 129.49 453.07 127.83 452.57 C126.98 452.31 126.4 452.11 125.93 451.91 C125.73 451.82 125.01 451.58 124.32 451.37 C122.6 450.84 120.15 450.02 119.15 449.65 C118.69 449.48 118.16 449.28 117.96 449.21 C117.77 449.14 117.5 449.01 117.37 448.92 C117.24 448.83 117.06 448.76 116.97 448.76 C116.89 448.76 116.64 448.68 116.43 448.59 C116.23 448.49 115.34 448.15 114.46 447.83 C112.9 447.25 112.27 446.99 110.65 446.24 C110.23 446.04 109.72 445.82 109.53 445.73 C109.33 445.64 108.87 445.43 108.49 445.26 C108.12 445.09 107.78 444.95 107.74 444.95 C107.59 444.95 104.77 443.6 103.52 442.94 C103.16 442.75 102.17 442.26 101.32 441.86 C99.37 440.94 98.49 440.5 97.82 440.12 C97.3 439.83 95.52 438.89 94.07 438.13 C93.68 437.92 92.74 437.35 91.99 436.85 C91.24 436.36 90.35 435.81 90.03 435.63 C89.13 435.14 86.75 433.76 85.75 433.15 C84.88 432.62 75.52 426.34 74.52 425.61 C74.06 425.28 71.15 422.99 70.95 422.81 C70.85 422.72 70.37 422.34 69.88 421.96 C69.39 421.59 68.75 421.07 68.45 420.82 C68.15 420.56 67.51 420.06 67.02 419.68 C66.54 419.32 65.76 418.68 65.31 418.27 C64.85 417.86 63.99 417.11 63.39 416.59 C59.47 413.21 52.26 406.23 48.35 402.05 C45.9 399.41 42.96 396.08 41.69 394.5 C41.06 393.72 40.44 392.96 40.31 392.83 C39.86 392.35 36.17 387.71 35.59 386.89 C35.27 386.43 34.95 385.99 34.88 385.92 C34.81 385.84 34.52 385.42 34.22 384.99 C33.28 383.58 31.83 381.56 31.37 381.01 C30.74 380.24 27.57 375.43 27.57 375.24 C27.57 375.21 27.39 374.93 27.17 374.62 C26.96 374.31 26.61 373.76 26.4 373.4 C26.19 373.04 25.57 372.02 25.02 371.14 C24.17 369.77 22.88 367.62 21.9 365.94 C21.76 365.69 21.45 365.12 21.21 364.66 C20.97 364.2 20.64 363.59 20.47 363.3 C19.99 362.44 15.55 353.48 15.02 352.3 C14.93 352.1 14.63 351.44 14.33 350.81 C14.04 350.19 13.66 349.32 13.48 348.86 C13.3 348.41 13.12 347.95 13.06 347.85 C12.75 347.26 11.72 344.79 11.45 343.98 C11.36 343.72 11.15 343.13 10.98 342.67 C10.82 342.21 10.41 341.04 10.08 340.06 C9.76 339.08 9.39 338.01 9.26 337.68 C9.14 337.35 8.9 336.71 8.72 336.26 C8.56 335.8 8.37 335.31 8.32 335.18 C8.21 334.93 7.94 334.12 7.66 333.22 C7.38 332.34 7.12 331.52 6.99 331.14 C6.92 330.95 6.77 330.44 6.65 330.01 C6.54 329.59 6.3 328.76 6.11 328.17 C5.94 327.58 5.71 326.81 5.61 326.45 C4.59 322.73 4.12 320.74 3.62 318.07 C3.44 317.15 3.2 315.92 3.09 315.34 C2.96 314.75 2.81 313.94 2.73 313.55 C2.6 312.8 2.51 312.31 2.13 310.28 C2 309.6 1.89 308.79 1.89 308.49 C1.89 308.2 1.81 307.64 1.71 307.26 C1.61 306.88 1.48 305.97 1.42 305.25 C1.36 304.52 1.25 303.74 1.19 303.51 C1.12 303.28 1.01 302.31 0.95 301.37 C0.88 300.42 0.78 299.36 0.71 299.01 C0.64 298.66 0.53 297.4 0.47 296.21 C0.4 295.03 0.28 293.47 0.2 292.75 C0 290.94 0 276.71 0.2 274.98 C0.28 274.29 0.4 272.72 0.47 271.47 C0.54 270.23 0.64 268.89 0.7 268.5 C0.77 268.11 0.87 267.07 0.94 266.18 C1.01 265.3 1.14 264.15 1.24 263.63 C1.33 263.1 1.46 262.28 1.53 261.79 C1.75 260.21 1.9 259.25 2.09 258.22 C2.19 257.66 2.32 256.86 2.37 256.44 C2.43 256.01 2.58 255.13 2.71 254.48 C3.14 252.4 3.39 251.15 3.79 249.12 C4.16 247.2 4.46 245.88 4.81 244.61 C5.47 242.12 5.61 241.62 5.75 240.98 C5.94 240.18 6.32 238.8 6.63 237.78 C6.87 237.01 6.95 236.76 7.36 235.57 C7.47 235.25 7.68 234.58 7.83 234.09 C7.98 233.6 8.2 232.93 8.32 232.61 C8.43 232.28 8.59 231.82 8.65 231.59 C8.81 231.04 9.71 228.53 9.8 228.37 C9.85 228.3 9.96 228 10.04 227.69 C10.13 227.39 10.45 226.44 10.75 225.59 C11.05 224.74 11.37 223.83 11.46 223.57 C11.84 222.45 12.69 220.32 13.2 219.17 C13.32 218.9 13.42 218.62 13.42 218.55 C13.42 218.48 13.5 218.27 13.59 218.08 C13.69 217.9 13.88 217.49 14.01 217.18 C14.57 215.88 14.81 215.37 15.98 212.99 C16.65 211.62 17.32 210.23 17.47 209.9 C17.92 208.9 18.66 207.32 18.98 206.69 C19.16 206.37 19.72 205.27 20.23 204.26 C20.74 203.24 21.3 202.2 21.45 201.94 C21.6 201.68 21.77 201.38 21.81 201.28 C21.86 201.18 22.27 200.46 22.72 199.68 C23.54 198.26 23.76 197.89 25.83 194.41 C26.43 193.42 27.06 192.32 27.25 191.98 C27.57 191.4 28.87 189.39 30.65 186.73 C31.88 184.89 32.55 183.95 34.52 181.36 C35.11 180.59 35.67 179.84 35.77 179.69 C35.87 179.55 36.57 178.61 37.33 177.61 C38.58 175.97 39.32 175.08 40.46 173.83 C40.67 173.6 41.28 172.82 41.84 172.1 C43.67 169.7 44.65 168.55 46.3 166.87 C47.97 165.16 49.49 163.52 50.63 162.17 C51.37 161.3 51.91 160.75 52.59 160.17 C52.85 159.95 53.31 159.55 53.6 159.28 C53.9 159.01 54.62 158.36 55.2 157.84 C55.78 157.31 57.03 156.11 57.99 155.16 C59.8 153.34 60.12 153.06 61.68 151.89 C62.73 151.11 64.67 149.56 65.78 148.62 C66.73 147.82 69.33 145.85 71.12 144.57 C71.91 144.01 72.69 143.44 72.85 143.31 C73.34 142.92 75.14 141.72 75.4 141.6 C75.54 141.54 75.89 141.33 76.18 141.14 C76.48 140.94 76.8 140.75 76.89 140.7 C76.98 140.66 77.39 140.4 77.8 140.14 C78.21 139.87 78.88 139.45 79.29 139.19 C79.71 138.94 80.34 138.53 80.7 138.3 C81.53 137.75 81.77 137.61 82.07 137.47 C82.32 137.36 85.72 135.52 86.05 135.32 C86.15 135.27 86.79 134.93 87.47 134.59 C88.16 134.24 88.81 133.89 88.91 133.8 C89.2 133.57 97.84 129.25 98.03 129.25 C98.12 129.25 98.34 129.18 98.51 129.08 C98.69 128.98 99.2 128.76 99.66 128.59 C100.12 128.42 100.72 128.17 100.99 128.05 C101.26 127.93 101.52 127.83 101.56 127.83 C101.6 127.83 102.09 127.61 102.66 127.34 C105.15 126.18 106.83 125.45 107.01 125.45 C107.09 125.45 107.29 125.37 107.46 125.28 C107.63 125.19 107.98 125.05 108.23 124.97 C108.48 124.89 108.75 124.78 108.81 124.74 C108.87 124.69 109.06 124.61 109.23 124.56 C109.51 124.49 111.2 123.78 112.26 123.31 C112.76 123.08 113.89 122.66 114.28 122.55 C114.41 122.52 114.97 122.32 115.53 122.12 C116.08 121.91 116.7 121.7 116.9 121.65 C117.11 121.6 117.51 121.47 117.8 121.37 C118.08 121.26 119.04 120.96 119.92 120.69 C120.81 120.42 122.09 120 122.78 119.78 C123.46 119.54 124.29 119.29 124.62 119.2 C125.44 118.99 126.8 118.6 127.23 118.45 C127.68 118.3 128.95 117.95 130.27 117.6 C131.75 117.22 132.76 116.93 134.44 116.41 C135.26 116.15 136.01 115.94 136.11 115.94 C136.21 115.94 136.53 115.86 136.8 115.76 C137.6 115.48 143.5 114.14 144.65 113.98 C144.94 113.93 145.45 113.83 145.77 113.74 C146.1 113.65 146.87 113.47 147.47 113.33 C148.08 113.2 149.04 112.99 149.61 112.86 C150.18 112.73 150.91 112.6 151.24 112.56 C151.56 112.52 152.09 112.42 152.43 112.33 C153.66 111.98 154.73 111.77 155.81 111.65 C156.42 111.58 157.04 111.48 157.19 111.42 C157.34 111.37 157.8 111.29 158.22 111.25 C158.63 111.2 159.34 111.09 159.8 111 C160.26 110.9 161.25 110.75 162 110.65 C162.75 110.56 164.04 110.37 164.85 110.23 C165.67 110.1 167.09 109.92 168.01 109.82 C168.92 109.72 169.96 109.59 170.32 109.53 C170.68 109.46 171.62 109.35 172.4 109.28 C173.18 109.2 173.86 109.12 173.9 109.1 C174.03 109.02 181.02 108.46 184.23 108.28 C186.03 108.18 188.46 108.04 189.64 107.97 C193.11 107.77 201.92 107.7 205.51 107.84 C211.13 108.07 218.13 108.45 218.93 108.58 C219.35 108.65 220.53 108.77 221.55 108.87 C225.02 109.18 227.08 109.4 227.73 109.52 C228.09 109.58 229.08 109.72 229.93 109.81 C232.17 110.07 234.13 110.33 234.75 110.47 C235.04 110.53 235.76 110.64 236.35 110.71 C236.94 110.78 237.61 110.89 237.84 110.94 C238.07 111 238.71 111.1 239.26 111.18 C239.82 111.25 240.54 111.38 240.86 111.48 C241.18 111.58 241.65 111.66 241.89 111.66 C242.14 111.66 242.58 111.74 242.86 111.84 C243.14 111.93 243.84 112.06 244.4 112.13 C244.97 112.19 245.53 112.29 245.65 112.35 C245.77 112.42 246.15 112.5 246.51 112.55 C246.88 112.59 247.57 112.73 248.06 112.85 C248.55 112.97 249.49 113.18 250.14 113.32 C250.79 113.46 251.54 113.63 251.8 113.7 C252.06 113.77 252.63 113.89 253.05 113.97 C254.09 114.18 257.33 114.95 258.28 115.23 C258.7 115.35 259.77 115.67 260.66 115.94 C262.23 116.42 262.84 116.59 264.76 117.13 C266.31 117.57 267.53 117.95 268.86 118.43 C269.09 118.51 269.52 118.65 269.81 118.74 C270.11 118.84 270.52 119 270.72 119.09 C270.93 119.19 271.19 119.27 271.29 119.27 C271.4 119.27 271.61 119.33 271.75 119.41 C271.89 119.49 272.33 119.64 272.72 119.75 C273.12 119.87 273.73 120.08 274.09 120.22 C274.45 120.36 274.96 120.55 275.22 120.64 C276.32 121.01 278.45 121.77 278.66 121.87 C278.8 121.94 279.23 122.12 279.62 122.28 C280.42 122.61 282.76 123.6 283.3 123.84 C283.5 123.93 284.01 124.15 284.43 124.32 C285.6 124.8 285.96 124.98 290.2 127.06 C292.35 128.12 294.49 129.16 294.95 129.37 C295.41 129.59 296.75 130.31 297.93 130.99 C299.12 131.67 300.15 132.22 300.21 132.22 C300.28 132.22 300.36 132.27 300.38 132.32 C300.4 132.37 300.74 132.59 301.13 132.82 C301.52 133.04 301.87 133.25 301.9 133.29 C301.94 133.33 302.26 133.55 302.62 133.77 C302.98 134 303.33 134.22 303.39 134.27 C303.77 134.57 305.27 135.51 305.83 135.81 C307.94 136.93 308.93 137.57 312.21 139.97 C312.41 140.12 313.21 140.67 313.97 141.2 C315.16 142.01 317.83 144.07 318.78 144.9 C318.94 145.04 319.41 145.41 319.82 145.73 C321.46 147.03 323.17 148.46 323.96 149.2 C324.42 149.64 325.35 150.47 326.04 151.06 C327.55 152.35 328.15 152.92 331.07 155.83 C335.63 160.37 337.57 162.49 340.88 166.56 C343.16 169.38 344.39 170.99 347.97 175.9 C348.2 176.23 348.69 176.95 349.06 177.51 L349.72 178.51 L349.37 178.79 C348.89 179.19 346.62 180.93 345.83 181.5 C345.46 181.75 344.87 182.18 344.51 182.45 C344.16 182.7 343.69 183.04 343.48 183.19 C343.26 183.34 342.09 184.2 340.87 185.09 C339.64 185.99 338.03 187.15 337.26 187.68 C336.51 188.2 335.42 188.96 334.85 189.36 C334.28 189.76 333.66 190.21 333.47 190.34 C333.27 190.48 332.4 191.11 331.54 191.75 C330.67 192.38 329.49 193.24 328.92 193.65 C326.9 195.11 325.27 196.32 324.73 196.75 C324.14 197.23 323.89 197.4 322.44 198.38 C321.9 198.75 320.92 199.44 320.27 199.92 C319.62 200.39 318.67 201.07 318.17 201.42 C317.66 201.77 316.75 202.43 316.14 202.89 C315.54 203.35 314.9 203.82 314.74 203.93 C314.29 204.25 312.13 205.68 311.59 206.02 C311.33 206.19 310.81 206.58 310.44 206.89 C310.07 207.21 309.69 207.46 309.59 207.46 C309.39 207.46 309.05 207.04 308.04 205.56 C307.67 205.01 307.14 204.26 306.89 203.9 C306.63 203.54 306.26 203.02 306.07 202.75 C305.39 201.77 305.17 201.46 304.7 200.85 C304.44 200.51 304.03 199.96 303.81 199.62 C302.96 198.38 301.19 196.04 299.47 193.87 C298.23 192.3 297.55 191.48 296.21 189.93 C296.04 189.74 295.5 189.09 295.01 188.51 C294.52 187.92 294.04 187.36 293.94 187.25 C293.84 187.15 293.39 186.64 292.93 186.12 C289.34 182.07 285.23 177.95 280.76 173.95 C280.21 173.46 279.68 172.98 279.57 172.88 C275.73 169.4 269.45 164.72 263.83 161.16 C263.32 160.84 262.47 160.29 261.93 159.94 C261.4 159.59 260.85 159.25 260.72 159.19 C260.59 159.13 260.21 158.92 259.88 158.71 C259.56 158.51 258.79 158.07 258.16 157.74 C257.54 157.41 256.61 156.91 256.08 156.62 C253.96 155.47 249.08 153.11 246.81 152.14 C246.09 151.83 245.34 151.5 245.14 151.41 C244.81 151.26 242.87 150.5 241.17 149.86 C240.74 149.7 240.27 149.52 240.12 149.45 C239.78 149.32 236.87 148.36 235.76 148.02 C235.3 147.88 234.66 147.67 234.33 147.54 C234 147.42 233.66 147.32 233.57 147.32 C233.49 147.32 233.25 147.24 233.04 147.15 C232.68 146.98 232 146.78 230.82 146.48 C230.53 146.41 229.97 146.26 229.58 146.16 C229.18 146.06 228.54 145.91 228.15 145.83 C227.76 145.74 227.01 145.56 226.49 145.42 C225.96 145.28 225.14 145.09 224.65 145 C224.17 144.9 223.61 144.78 223.41 144.71 C223.2 144.65 222.64 144.54 222.16 144.47 C221.68 144.4 221.24 144.31 221.19 144.29 C220.73 144.01 211.42 142.69 208.12 142.45 C207.24 142.38 205.8 142.27 204.91 142.19 C202.66 142 189.39 142 187.38 142.19 C186.53 142.27 184.71 142.41 183.34 142.51 C181.97 142.61 180.57 142.74 180.25 142.8 C179.92 142.86 179.36 142.94 179 142.98 C178.33 143.06 174.79 143.55 171.82 143.99 C170.92 144.12 170.14 144.26 170.09 144.29 C170.04 144.31 169.6 144.4 169.12 144.47 C168.64 144.54 168.08 144.65 167.87 144.71 C167.67 144.78 167.11 144.9 166.63 145 C164.86 145.35 163.07 145.77 161.77 146.15 C161.36 146.27 160.93 146.37 160.82 146.37 C160.72 146.36 160.28 146.47 159.83 146.61 C159.06 146.83 158.6 146.96 156.47 147.56 C155.95 147.7 155.23 147.92 154.87 148.03 C154.51 148.15 153.5 148.47 152.61 148.74 C151.73 149.01 150.74 149.34 150.42 149.45 C150.09 149.57 149.39 149.8 148.87 149.97 C147.41 150.46 145.45 151.21 143.87 151.89 C143.68 151.98 143.38 152.09 143.22 152.14 C143.06 152.18 142.82 152.3 142.69 152.39 C142.56 152.48 142.38 152.55 142.28 152.55 C142.19 152.55 141.9 152.65 141.63 152.78 C141.36 152.9 139.83 153.58 138.23 154.28 C135.13 155.64 129.83 158.25 127.47 159.57 C126.69 160.01 125.82 160.5 125.54 160.65 C125.27 160.8 124.5 161.25 123.84 161.64 C123.19 162.04 122.55 162.41 122.44 162.48 C121.71 162.91 118.79 164.72 117.55 165.52 C116.02 166.5 115.04 167.19 111.01 170.08 C109.68 171.04 105.46 174.35 103.98 175.6 C103.55 175.97 102.94 176.48 102.62 176.74 C101.28 177.85 99.95 179.01 97.37 181.34 C95.53 183 89 189.67 87.75 191.17 C87.56 191.39 86.83 192.25 86.1 193.07 C85.39 193.9 84.57 194.86 84.3 195.22 C84.03 195.58 83.7 195.98 83.59 196.11 C83.46 196.24 82.97 196.86 82.48 197.48 C82 198.1 81.56 198.66 81.51 198.73 C80.84 199.56 79.66 201.09 79.1 201.86 C78.38 202.84 77.46 204.09 77.28 204.32 C76.55 205.22 73.03 210.55 72.04 212.22 C71.83 212.58 71.5 213.11 71.31 213.41 C70.85 214.13 68.95 217.43 68.39 218.46 C68.15 218.92 67.76 219.64 67.53 220.06 C66.63 221.73 65.44 224.09 64.66 225.75 C64.22 226.71 63.6 228.02 63.3 228.66 C63 229.3 62.75 229.85 62.75 229.89 C62.75 229.94 62.46 230.6 61.97 231.66 C61.31 233.07 59.95 236.6 59.47 238.13 C59.38 238.43 59.25 238.77 59.18 238.9 C58.81 239.65 56.49 246.82 56.03 248.65 C55.95 248.98 55.74 249.78 55.56 250.44 C55.39 251.09 55.18 251.97 55.09 252.4 C55 252.82 54.71 254.13 54.44 255.31 C54.17 256.48 53.84 258.01 53.71 258.7 C53.59 259.38 53.43 260.21 53.37 260.54 C53.12 261.78 52.77 264.06 52.53 266 C52.39 267.12 52.2 268.59 52.11 269.27 C52.01 269.96 51.88 271.24 51.82 272.13 C51.75 273.01 51.63 274.29 51.55 274.98 C51.45 275.81 51.41 278.59 51.4 283.3 C51.4 290.57 51.51 293.01 52 296.85 C52.1 297.6 52.22 298.67 52.28 299.23 C52.34 299.78 52.47 300.74 52.58 301.37 C52.68 301.99 52.85 303.03 52.95 303.69 C53.06 304.34 53.22 305.28 53.32 305.77 C53.41 306.26 53.59 307.16 53.71 307.79 C53.96 309.08 55.43 314.88 56.05 317 C56.64 319.01 57.18 320.7 57.76 322.29 C58.03 323.04 58.33 323.89 58.42 324.17 C58.51 324.47 58.64 324.76 58.69 324.83 C58.75 324.9 58.84 325.1 58.89 325.26 C58.93 325.42 59.05 325.72 59.13 325.91 C59.22 326.11 59.48 326.72 59.7 327.28 C60.84 330.07 61.72 332.09 62.34 333.34 C64.19 337.09 66.12 340.78 66.68 341.66 C66.74 341.76 66.86 341.98 66.94 342.14 C67.02 342.3 67.3 342.76 67.55 343.15 C68.38 344.41 68.77 345.04 68.93 345.35 C69.21 345.89 71.84 349.88 73.27 351.95 C73.63 352.47 74.06 353.08 74.21 353.31 C74.58 353.86 76.86 356.9 77.31 357.43 C77.38 357.5 77.66 357.86 77.93 358.2 C81.32 362.52 82.24 363.6 85.68 367.33 C88.45 370.33 94.29 376.01 97.05 378.4 C99.3 380.34 104.97 384.94 105.77 385.48 C106.01 385.63 106.65 386.08 107.21 386.47 C114.36 391.54 121.21 395.67 128.07 399.08 C129.97 400.02 131.71 400.87 131.93 400.96 C132.16 401.05 132.56 401.22 132.82 401.34 C133.24 401.53 135.69 402.53 137.16 403.11 C137.45 403.23 138.28 403.58 139 403.89 C139.72 404.19 140.52 404.51 140.78 404.6 C141.04 404.68 141.88 404.98 142.63 405.25 C145.12 406.15 148.09 407.1 151.54 408.09 C152.03 408.24 152.67 408.43 152.97 408.52 C153.26 408.61 153.72 408.72 153.98 408.76 C154.24 408.81 154.8 408.94 155.23 409.05 C155.65 409.17 156.53 409.39 157.19 409.53 C157.84 409.68 158.78 409.89 159.27 410.01 C159.76 410.13 160.67 410.34 161.29 410.47 C161.91 410.61 162.79 410.8 163.25 410.9 C163.71 411 164.48 411.13 164.98 411.19 C165.47 411.25 166.01 411.35 166.17 411.42 C166.33 411.47 166.81 411.56 167.23 411.61 C167.66 411.65 168.24 411.75 168.54 411.82 C169.19 411.96 171.84 412.32 174.01 412.56 C174.89 412.66 175.96 412.79 176.38 412.85 C176.81 412.91 177.64 412.99 178.23 413.03 C178.81 413.07 180.72 413.19 182.45 413.3 C184.85 413.46 187.2 413.51 192.37 413.51 C198.71 413.5 199.39 413.48 203.01 413.18 C208.15 412.75 211.14 412.41 214.06 411.95 C214.69 411.85 215.62 411.72 216.14 411.66 C216.67 411.6 217.36 411.47 217.68 411.37 C218.01 411.28 218.4 411.2 218.57 411.2 C218.73 411.2 219.19 411.12 219.59 411.02 C219.99 410.92 220.77 410.76 221.32 410.67 C221.87 410.58 222.57 410.45 222.86 410.38 C223.64 410.2 224.45 410.02 225.59 409.77 C228.28 409.18 228.89 409.03 230.59 408.58 C231.01 408.47 231.6 408.31 231.89 408.24 C233.36 407.85 233.75 407.74 233.92 407.64 C234.03 407.58 234.7 407.37 235.41 407.17 C236.98 406.72 244.57 404.15 245.27 403.83 C246.1 403.45 247.23 403 247.34 403 C247.41 403 247.56 402.94 247.67 402.89 C248.08 402.66 249.28 402.16 249.4 402.16 C249.47 402.16 249.74 402.06 250.01 401.94 C250.27 401.81 250.85 401.57 251.27 401.39 C251.69 401.21 252.26 400.98 252.51 400.86 C252.78 400.74 253.39 400.47 253.88 400.25 C255.57 399.5 260.73 396.93 261.72 396.34 C262.06 396.14 262.36 395.98 262.39 395.98 C262.43 395.98 262.82 395.77 263.25 395.52 C263.69 395.27 264.37 394.89 264.76 394.69 C265.15 394.48 265.55 394.26 265.65 394.2 C265.75 394.14 266.45 393.74 267.2 393.31 C267.95 392.87 268.8 392.36 269.1 392.17 C269.39 391.98 269.74 391.78 269.87 391.71 C270 391.65 270.48 391.36 270.94 391.06 C271.4 390.77 272.12 390.31 272.55 390.04 C275.36 388.26 278.73 385.96 280.57 384.56 C281.48 383.87 282.61 383.02 283.07 382.68 C284.53 381.61 284.92 381.31 285.13 381.13 C285.24 381.03 285.54 380.79 285.8 380.59 C286.79 379.86 290.5 376.72 291.92 375.42 C292.02 375.32 292.56 374.84 293.11 374.35 C295.56 372.17 301.71 366.09 303.4 364.19 C303.92 363.6 304.64 362.8 305 362.41 C305.37 362.01 305.82 361.5 306.01 361.27 C306.33 360.88 307.42 359.6 308.19 358.72 C309.53 357.19 311.95 354.07 314.88 350.12 C315.36 349.47 319.33 343.5 320.13 342.23 C322 339.25 322.04 339.18 322.69 338.03 C322.91 337.64 323.21 337.13 323.35 336.88 C324.24 335.32 325.25 333.38 326.04 331.74 C326.54 330.69 327.26 329.19 327.64 328.41 C329.4 324.75 331.02 320.67 332.28 316.7 C333.26 313.62 333.27 313.57 333.06 313.44 C332.99 313.4 322.04 313.37 308.7 313.37 C285.73 313.37 284.45 313.36 284.23 313.16 C284 312.96 284 312.85 284.08 310.46 C284.13 309.09 284.23 304.09 284.3 299.35 C284.38 294.61 284.52 287.2 284.61 282.88 C284.71 278.57 284.79 274.17 284.8 273.11 C284.81 271.89 284.86 271.11 284.95 271 C285.07 270.83 288 270.82 312.96 270.83 C391.92 270.88 389.34 270.87 389.54 271.03 C389.66 271.14 389.75 271.51 389.8 272.28 C389.84 272.88 389.96 273.91 390.05 274.56 C390.26 276.03 390.48 281.12 390.48 284.91 C390.49 288.37 390.25 295.45 390.1 296.43 C390.04 296.83 389.94 297.96 389.87 298.95 C389.8 299.95 389.67 301.22 389.57 301.79 C389.47 302.36 389.38 303.1 389.38 303.44 C389.38 303.77 389.33 304.31 389.26 304.64 C389.2 304.96 389.1 305.68 389.02 306.24 C388.89 307.29 388.59 308.8 388.2 310.49 C388.07 311.02 387.96 311.62 387.96 311.8 C387.96 312.46 386.99 316.96 386.06 320.62 C385.87 321.37 385.52 322.77 385.29 323.71 C384.73 325.99 384.47 326.93 384.3 327.24 C384.22 327.38 384.16 327.59 384.16 327.7 C384.16 327.82 384.05 328.13 383.93 328.4 C383.68 328.93 383.4 329.74 383.16 330.66 C382.99 331.26 382.89 331.56 382.49 332.69 C382.37 333.01 382.24 333.42 382.2 333.58 C382.16 333.74 382.08 333.98 382.02 334.12 C381.79 334.63 381.31 335.92 381.31 336.01 C381.31 336.07 381.21 336.33 381.08 336.6 C380.96 336.86 380.5 338.02 380.06 339.17 C379.62 340.31 379.19 341.39 379.09 341.56 C379 341.73 378.93 341.94 378.93 342.02 C378.93 342.1 378.83 342.39 378.7 342.66 C378.58 342.93 378.36 343.44 378.21 343.8 C378.06 344.16 377.81 344.73 377.66 345.07 C377.51 345.41 377.38 345.72 377.38 345.76 C377.38 345.8 377.2 346.22 376.97 346.69 C376.75 347.16 376.51 347.69 376.44 347.85 C376.37 348.01 376.27 348.22 376.2 348.32 C376.14 348.42 375.93 348.85 375.72 349.27 C375.52 349.69 375.31 350.12 375.25 350.22 C375.19 350.32 374.97 350.75 374.76 351.17 C374.55 351.59 374.34 352.02 374.28 352.12 C374.23 352.22 373.7 353.29 373.11 354.5 C372.52 355.71 371.71 357.29 371.32 358 C370.92 358.73 370.38 359.74 370.12 360.27 C369.86 360.79 369.41 361.59 369.12 362.05 C368.83 362.51 368.4 363.23 368.15 363.65 C367.91 364.08 367.28 365.09 366.76 365.91 C366.24 366.73 365.66 367.66 365.46 367.99 C364.47 369.64 362.03 373.36 360.55 375.48 C360.18 376 358.96 377.66 357.84 379.16 C356.71 380.67 355.53 382.27 355.21 382.73 C354.19 384.22 350.6 388.6 348.02 391.52 C347.27 392.37 346.39 393.39 346.06 393.78 C345.74 394.17 344.69 395.29 343.74 396.28 C342.78 397.26 341.55 398.57 341 399.19 C340 400.32 339.06 401.27 336.42 403.82 C335.64 404.57 334.13 406.05 333.05 407.09 C330.89 409.19 330.52 409.53 328.11 411.62 C327.2 412.4 326.19 413.28 325.85 413.57 C323.85 415.33 320.85 417.78 319.23 418.97 C318.72 419.34 318.2 419.75 318.07 419.87 C317.85 420.09 315.67 421.77 315.1 422.16 C314.94 422.27 314.59 422.52 314.32 422.7 C313.3 423.44 312.75 423.82 312.13 424.24 C311.77 424.49 311.41 424.74 311.33 424.81 C311.25 424.87 311 425.06 310.76 425.22 C310.52 425.39 310.06 425.73 309.73 425.98 C309.16 426.41 308.47 426.86 306.6 428.03 C306.21 428.27 304.97 429.08 303.84 429.82 C302.72 430.56 301.75 431.17 301.69 431.17 C301.63 431.17 301.51 431.25 301.42 431.35 C301.34 431.45 301.11 431.61 300.9 431.71 C300.7 431.81 300.43 431.95 300.3 432.03 C300.17 432.11 299.69 432.38 299.23 432.64 C298.77 432.89 298.32 433.17 298.22 433.25 C298.12 433.33 297.69 433.58 297.27 433.81 C296.85 434.04 296.31 434.34 296.08 434.48 C295.85 434.62 295.53 434.79 295.37 434.88 C295.21 434.95 294.99 435.08 294.89 435.17 C294.71 435.32 294.43 435.47 292.58 436.46 C292.05 436.73 291.35 437.12 291.03 437.32 C290.7 437.52 289.63 438.09 288.65 438.58 C287.67 439.08 286.58 439.65 286.21 439.84 C285.47 440.25 281.62 442.1 281.51 442.1 C281.45 442.1 281.11 442.25 279.38 443.05 C278.92 443.27 278.15 443.6 277.67 443.79 C277.18 443.99 276.7 444.19 276.6 444.25 C275.96 444.58 274.06 445.43 273.94 445.43 C273.86 445.43 273.59 445.53 273.34 445.67 C273.1 445.8 272.84 445.91 272.75 445.91 C272.67 445.91 272.4 446.01 272.16 446.14 C271.91 446.28 271.66 446.38 271.58 446.38 C271.51 446.38 271.29 446.46 271.08 446.55 C270.23 446.94 268.49 447.62 267.32 448 C266.63 448.23 265.91 448.48 265.71 448.57 C265.51 448.65 264.63 448.98 263.75 449.29 C262.87 449.6 261.96 449.92 261.73 450 C260.96 450.29 255.85 451.97 255.25 452.14 C254.44 452.37 253.2 452.75 252.7 452.93 C251.47 453.36 251.04 453.5 250.56 453.62 C246.58 454.63 242.91 455.58 242 455.83 C240.19 456.34 238.76 456.67 236.47 457.13 C235.29 457.36 233.71 457.69 232.96 457.86 C232.21 458.03 231.28 458.21 230.88 458.27 C230.49 458.33 229.74 458.46 229.22 458.56 C226.62 459.03 226.06 459.12 225.24 459.22 C224.75 459.28 223.46 459.47 222.38 459.64 C220.02 460.02 217.4 460.37 215.79 460.53 C215.13 460.59 213.85 460.73 212.94 460.83 C209.06 461.24 207.27 461.37 199.5 461.77 C195.82 461.97 183.34 462 181.08 461.82 Z M21.68 168.54 C18.31 168.04 15.93 167.14 14.16 165.71 C12.29 164.19 11.49 162.46 11.51 159.97 C11.51 159.08 11.57 158.51 11.7 158.22 C11.8 157.98 11.88 157.7 11.88 157.58 C11.88 157.25 12.47 156.12 13.08 155.27 C13.87 154.18 14.92 153.26 16.57 152.19 C17.33 151.7 18.28 151.08 18.69 150.8 C20.61 149.49 21.07 149.2 21.82 148.79 C22.27 148.56 22.82 148.25 23.05 148.11 C23.72 147.69 23.92 147.57 24.3 147.37 C24.5 147.26 25.4 146.68 26.32 146.07 C27.23 145.47 28.75 144.54 29.68 144.01 C31.19 143.14 32.49 142.34 33.92 141.39 C34.18 141.22 34.94 140.68 35.61 140.19 C38.53 138.04 39.29 137.5 40.15 136.93 C41.31 136.17 41.53 135.98 42.84 134.79 C43.43 134.25 44.34 133.43 44.86 132.97 C46.85 131.22 47.96 129.91 48.95 128.14 C49.09 127.9 49.67 126.69 50.23 125.47 C51.64 122.39 51.61 122.48 52.36 120.75 C53.04 119.19 53.14 118.97 54.11 116.83 C54.41 116.18 54.77 115.37 54.91 115.05 C55.06 114.72 55.49 113.8 55.87 112.99 C56.26 112.18 56.57 111.5 56.57 111.48 C56.57 111.46 56.86 110.82 57.23 110.06 C57.58 109.3 57.88 108.64 57.88 108.59 C57.88 108.49 60.92 102.41 61.07 102.22 C61.12 102.15 61.43 101.61 61.74 101.02 C62.05 100.44 62.83 99.04 63.46 97.93 C64.1 96.82 64.99 95.21 65.43 94.36 C66.36 92.58 66.71 92.01 67.76 90.6 C68.18 90.04 68.7 89.27 68.93 88.89 C69.43 88.07 70.09 87.08 70.94 85.87 C71.28 85.38 71.81 84.61 72.12 84.16 C73.65 81.92 75.76 79.23 78.42 76.13 C79.12 75.32 79.97 74.3 80.32 73.88 C81.47 72.45 83.92 69.89 87.29 66.58 C90.93 63.02 92.55 61.55 94.19 60.31 C94.78 59.86 95.45 59.33 95.68 59.12 C96.47 58.4 98 57.15 99 56.41 C99.56 56 100.58 55.26 101.26 54.75 C102.98 53.48 107.01 50.74 107.86 50.25 C107.99 50.17 108.78 49.69 109.62 49.18 C110.45 48.67 111.33 48.14 111.58 47.99 C111.82 47.85 112.77 47.3 113.68 46.76 C115.78 45.52 120.39 43.12 122.31 42.26 C122.8 42.04 123.49 41.73 123.85 41.57 C124.21 41.4 124.66 41.2 124.85 41.11 C125.87 40.68 127.22 40.07 128.03 39.7 C128.4 39.53 128.76 39.39 128.82 39.39 C128.89 39.39 129.09 39.32 129.28 39.22 C129.8 38.95 130.89 38.48 131.22 38.38 C131.38 38.33 131.57 38.25 131.63 38.2 C131.7 38.15 131.94 38.07 132.17 38.02 C132.4 37.97 132.69 37.88 132.82 37.81 C133.05 37.68 133.71 37.43 134.73 37.07 C134.99 36.98 135.57 36.77 136.03 36.6 C137.04 36.22 139.97 35.25 141.2 34.88 C141.69 34.74 142.41 34.51 142.8 34.39 C143.19 34.26 143.62 34.16 143.76 34.16 C143.91 34.16 144.26 34.08 144.54 33.98 C144.83 33.88 145.38 33.72 145.77 33.63 C146.17 33.54 146.94 33.35 147.5 33.22 C149.26 32.78 150.51 32.5 151.3 32.37 C151.73 32.3 152.43 32.16 152.85 32.07 C153.71 31.88 154.16 31.86 154.16 32 C154.16 32.05 153.9 32.29 153.59 32.53 C153.28 32.77 152.81 33.16 152.55 33.4 C152.29 33.63 151.57 34.23 150.95 34.73 C147.74 37.28 148 37.05 144.42 40.5 C142 42.82 138.72 46.2 137.69 47.41 C137.37 47.8 136.72 48.54 136.26 49.07 C135.44 50.01 133.86 52.06 133.42 52.76 C133.3 52.96 132.69 53.82 132.06 54.66 C130.7 56.5 130.97 56.11 128.82 59.32 C127.86 60.75 126.99 62.08 126.89 62.27 C126.78 62.47 126.59 62.79 126.48 62.98 C126.36 63.18 125.98 63.88 125.63 64.53 C125.29 65.18 124.68 66.28 124.28 66.97 C123.89 67.65 123.26 68.8 122.89 69.53 C122.52 70.24 121.92 71.39 121.56 72.08 C121.2 72.76 120.65 73.91 120.35 74.63 C120.04 75.35 119.58 76.45 119.31 77.07 C119.05 77.69 118.74 78.41 118.61 78.67 C118.49 78.94 118.25 79.52 118.08 79.99 C117.91 80.44 117.69 80.98 117.6 81.19 C117.5 81.4 117.43 81.62 117.43 81.69 C117.43 81.81 117.29 82.13 116.7 83.44 C116.58 83.71 116.48 83.97 116.48 84.02 C116.48 84.07 116.4 84.27 116.31 84.48 C116.21 84.69 116.05 85.07 115.96 85.33 C115.86 85.6 115.72 86 115.64 86.22 C115.3 87.17 115.06 87.88 114.74 88.9 C114.56 89.49 114.37 90.05 114.31 90.15 C114.1 90.56 113.33 93.06 112.91 94.75 C112.66 95.74 112.43 96.61 112.39 96.66 C112.35 96.73 112.24 97.12 112.15 97.53 C112.06 97.95 111.82 98.9 111.63 99.66 C111.27 101.08 110.92 102.57 110.54 104.44 C110.32 105.47 110.22 105.92 109.94 107.17 C109.81 107.79 109.63 108.82 109.45 109.94 C109.38 110.4 109.25 111.12 109.16 111.54 C109.07 111.96 108.94 112.82 108.87 113.43 C108.8 114.04 108.7 114.77 108.64 115.03 C108.58 115.3 108.47 116.16 108.39 116.95 C108.32 117.73 108.23 118.41 108.21 118.45 C108.19 118.49 108.09 119.16 107.99 119.93 C107.8 121.52 107.75 121.59 106.76 121.95 C106.45 122.06 105.48 122.46 104.59 122.84 C103.71 123.22 102.61 123.67 102.16 123.85 C101.7 124.02 101.17 124.24 100.97 124.32 C100.77 124.4 100.32 124.59 99.95 124.74 C99.59 124.89 99.06 125.12 98.77 125.24 C98.47 125.38 98.07 125.55 97.88 125.63 C97.68 125.71 97.04 126.01 96.45 126.28 C94.89 127.02 94.53 127.18 93.54 127.59 C92.58 127.99 92.23 128.14 91.38 128.53 C91.08 128.66 90.8 128.78 90.76 128.78 C90.72 128.78 89.79 129.21 88.69 129.73 C85.95 131.05 85.79 131.13 84.54 131.83 C83.92 132.17 83.04 132.64 82.57 132.88 C81.47 133.42 80.45 133.99 80.22 134.18 C80.12 134.26 79.35 134.7 78.5 135.14 C77.02 135.9 75.49 136.74 75.11 136.99 C75.01 137.05 74.77 137.18 74.58 137.29 C74.1 137.53 73.53 137.87 72.5 138.52 C72.04 138.82 71.56 139.11 71.45 139.18 C71.19 139.34 70.51 139.79 69.46 140.52 C69.01 140.83 68.18 141.41 67.62 141.79 C67.07 142.17 66.48 142.58 66.32 142.71 C66.15 142.83 65.4 143.38 64.65 143.93 C61.3 146.38 60.53 147.01 57.57 149.7 C56.59 150.58 55.71 151.38 55.61 151.48 C55.5 151.58 55.08 151.95 54.66 152.31 C53.7 153.12 51.95 154.87 51.1 155.87 C49.66 157.58 48.76 158.59 48 159.39 C47.22 160.2 46.77 160.72 45.58 162.14 C44.77 163.1 43.26 163.99 39.99 165.44 C36.33 167.06 34.12 167.68 29.35 168.43 C27.65 168.69 23.14 168.76 21.68 168.54 Z M361.22 168.64 C359.21 168.4 356.59 167.89 355.1 167.46 C354.77 167.36 354.21 167.19 353.85 167.09 C353.21 166.91 351.21 166.23 350.4 165.92 C350.17 165.83 349.5 165.5 348.91 165.19 C348.32 164.87 347.28 164.32 346.61 163.96 C345.3 163.27 344.7 162.75 343.4 161.23 C342.99 160.74 342.29 159.96 341.85 159.5 C341.41 159.04 340.49 157.97 339.81 157.13 C338.52 155.52 332.6 149.55 330.91 148.15 C330.42 147.75 329.88 147.3 329.72 147.16 C329.56 147.02 328.86 146.46 328.17 145.92 C327.49 145.38 326.69 144.73 326.4 144.49 C326.11 144.25 325.63 143.88 325.34 143.66 C325.04 143.45 324.77 143.23 324.73 143.18 C324.63 143.04 323.4 142.08 322.65 141.56 C322.27 141.29 321.58 140.78 321.12 140.42 C320.13 139.66 318.6 138.64 317.44 137.98 C316.42 137.39 316.34 137.35 315.7 136.92 C315.1 136.51 314.41 136.08 314.15 135.95 C313.73 135.74 311.42 134.28 310.76 133.8 C309.8 133.12 308.46 132.21 308.06 131.99 C307.89 131.89 307.25 131.53 306.66 131.18 C305.53 130.53 300.14 127.75 296.87 126.14 C295.74 125.59 295.28 125.34 294.72 124.97 C294.36 124.75 291.96 123.55 291.86 123.55 C291.83 123.55 291.42 123.36 290.94 123.12 C290.47 122.89 289.6 122.52 289.01 122.3 C287.11 121.59 286.78 121.45 285.14 120.73 C284.26 120.34 283.34 119.95 283.1 119.87 C282.85 119.79 282.6 119.63 282.54 119.52 C282.49 119.42 282.41 118.73 282.37 118 C282.33 117.27 282.22 116.23 282.13 115.68 C282.03 115.14 281.89 114.37 281.82 113.98 C281.75 113.59 281.61 112.76 281.51 112.14 C281.41 111.51 281.25 110.71 281.16 110.33 C281.06 109.97 280.98 109.54 280.98 109.4 C280.98 109.25 280.88 108.67 280.75 108.11 C280.63 107.54 280.47 106.82 280.4 106.49 C280.34 106.16 280.23 105.63 280.15 105.3 C280.08 104.98 279.91 104.17 279.78 103.52 C279.53 102.28 279.26 101.06 278.72 98.64 C278.42 97.3 277.98 95.67 277.61 94.52 C277.39 93.85 277.1 92.89 276.95 92.4 C276.44 90.68 274.64 85.21 274.49 84.92 C274.4 84.75 274.33 84.56 274.33 84.48 C274.33 84.41 274.19 84.04 274.02 83.65 C273.45 82.36 273.4 82.24 273.14 81.53 C273 81.14 272.78 80.59 272.65 80.33 C272.53 80.06 272.43 79.8 272.43 79.75 C272.43 79.71 272.22 79.23 271.97 78.7 C271.72 78.16 271.47 77.59 271.42 77.43 C271.37 77.27 271.29 77.08 271.23 77.01 C271.18 76.94 271.06 76.68 270.97 76.42 C270.77 75.87 270.01 74 269.74 73.39 C268.91 71.52 265.27 64.89 262.89 60.92 C262.71 60.62 262.37 60.05 262.14 59.66 C261.91 59.27 261.49 58.62 261.2 58.23 C260.91 57.84 260.2 56.82 259.63 55.98 C259.05 55.12 258.24 54.03 257.83 53.54 C257.43 53.05 256.78 52.21 256.41 51.7 C255.55 50.48 254.83 49.59 254.15 48.86 C253.86 48.55 253.3 47.92 252.92 47.46 C252.05 46.42 249.21 43.41 247.16 41.36 C245.48 39.68 244.45 38.73 242.74 37.32 C242.14 36.82 241.38 36.17 241.07 35.88 C240.77 35.58 239.81 34.81 238.96 34.17 C236.51 32.31 235.92 31.69 236.91 32 C237.12 32.07 237.73 32.19 238.25 32.25 C238.78 32.33 239.36 32.44 239.56 32.5 C239.76 32.56 240.32 32.69 240.81 32.79 C241.3 32.89 242.1 33.09 242.59 33.22 C243.08 33.36 243.8 33.54 244.19 33.62 C244.59 33.71 245.18 33.85 245.51 33.96 C245.83 34.06 246.6 34.29 247.23 34.46 C247.85 34.64 248.73 34.91 249.19 35.07 C249.65 35.23 250.64 35.57 251.39 35.83 C252.14 36.08 252.91 36.34 253.11 36.41 C253.31 36.48 253.95 36.7 254.54 36.89 C256.04 37.39 256.61 37.59 257.15 37.84 C258.28 38.35 258.5 38.44 258.59 38.44 C258.63 38.44 258.92 38.55 259.22 38.69 C260.1 39.09 260.59 39.31 263.04 40.38 C264.31 40.94 266.85 42.14 268.68 43.05 C270.52 43.97 272.3 44.85 272.66 45.03 C274.58 45.98 280.49 49.47 282.04 50.56 C282.41 50.82 283.24 51.39 283.89 51.82 C284.55 52.26 285.19 52.69 285.32 52.78 C285.45 52.87 285.91 53.17 286.33 53.46 C288.02 54.6 292.51 58.01 293.88 59.18 C294.21 59.46 295.6 60.65 296.97 61.82 C299.27 63.79 300.27 64.73 303.88 68.28 C305.36 69.74 307.55 72.07 308.79 73.51 C309.26 74.06 309.93 74.84 310.27 75.23 C310.61 75.62 311.08 76.16 311.32 76.43 C311.57 76.7 312.21 77.48 312.75 78.17 C313.29 78.86 314.16 79.96 314.68 80.6 C315.21 81.25 315.74 81.93 315.87 82.11 C316 82.29 316.24 82.62 316.41 82.84 C316.96 83.58 318.08 85.21 319.14 86.82 C319.72 87.7 320.71 89.17 321.34 90.08 C323.43 93.14 323.75 93.67 325.03 96.17 C325.72 97.53 326.36 98.72 326.45 98.82 C326.74 99.18 327.52 100.59 328.83 103.16 C329.56 104.6 330.28 105.99 330.43 106.25 C331 107.24 331.29 107.82 331.63 108.63 C331.83 109.09 332.04 109.57 332.1 109.7 C333.91 113.85 334.69 115.59 334.94 116.07 C335 116.17 335.19 116.62 335.37 117.08 C335.54 117.53 335.76 118.06 335.85 118.26 C335.93 118.45 336.19 119.07 336.44 119.62 C336.67 120.18 337.2 121.28 337.61 122.06 C338.01 122.84 338.63 124.13 338.98 124.92 C340.06 127.33 341.08 129.29 341.6 129.95 C342.23 130.74 344.02 132.53 345.17 133.52 C345.66 133.94 346.09 134.32 346.12 134.36 C346.21 134.49 349.82 137.33 350.54 137.84 C350.89 138.09 351.45 138.5 351.79 138.74 C352.13 138.98 352.76 139.42 353.2 139.71 C353.63 140.01 354.66 140.75 355.49 141.37 C357.16 142.61 358.22 143.3 359.2 143.81 C360.69 144.57 361.65 145.1 361.82 145.26 C361.93 145.34 362.05 145.42 362.11 145.42 C362.21 145.42 363.09 145.98 363.24 146.13 C363.4 146.3 364.79 147.2 365.9 147.84 C369.29 149.81 370.07 150.29 371.5 151.22 C375.14 153.61 376.93 155.5 377.64 157.72 C378.01 158.83 378.03 161.06 377.69 162.06 C376.67 165.08 373.69 167.3 369.24 168.38 C368.44 168.57 367.75 168.62 364.96 168.65 C363.13 168.67 361.45 168.67 361.22 168.64 Z M116.6 117.69 C116.6 117.41 116.67 116.73 116.77 116.18 C116.86 115.62 116.97 114.74 117.01 114.22 C117.06 113.69 117.16 112.92 117.25 112.49 C117.33 112.07 117.44 111.32 117.49 110.83 C117.53 110.34 117.64 109.67 117.73 109.34 C117.81 109.02 117.92 108.43 117.96 108.04 C118 107.64 118.11 107.05 118.21 106.73 C118.39 106.06 118.68 104.7 118.91 103.34 C119.27 101.28 119.64 99.76 120.44 97.04 C120.74 96.03 121.15 94.63 121.35 93.95 C121.96 91.83 122.31 90.7 122.48 90.27 C122.56 90.04 122.78 89.4 122.95 88.84 C123.28 87.8 123.64 86.79 123.9 86.17 C124.22 85.4 124.56 84.49 124.56 84.4 C124.56 84.35 124.75 83.87 124.99 83.33 C125.23 82.8 125.57 81.94 125.76 81.41 C125.95 80.88 126.16 80.35 126.22 80.22 C126.28 80.09 126.47 79.61 126.65 79.15 C127.42 77.13 131.02 69.94 132.26 67.92 C132.69 67.23 133.38 66 133.8 65.18 C134.22 64.37 134.68 63.51 134.82 63.28 C135.9 61.48 139.52 56.19 141.56 53.44 C142.31 52.42 142.55 52.13 144.4 49.98 C147.34 46.57 150.8 43.1 153.97 40.35 C154.16 40.18 154.62 39.78 154.99 39.45 C156.56 38.06 157.23 37.52 158.84 36.32 C159.77 35.62 161.09 34.67 161.77 34.23 C164.62 32.36 164.95 32.13 165.09 31.96 C165.17 31.87 165.29 31.78 165.34 31.78 C165.4 31.78 165.75 31.58 166.13 31.34 C166.88 30.84 166.96 30.8 168.04 30.18 C168.69 29.8 169.49 29.19 169.36 29.16 C169.33 29.15 167.68 29.13 165.69 29.1 C161.9 29.05 158.63 28.88 157.8 28.7 C157.53 28.64 156.85 28.53 156.3 28.46 C153.18 28.08 149.1 26.6 146.61 24.95 C143.81 23.11 141.97 21.1 140.85 18.67 C139.53 15.8 139.15 13.22 139.65 10.66 C139.98 8.98 140.34 8.1 141.23 6.73 C142.31 5.08 143.26 4.11 144.82 3.09 C148.17 0.87 150.67 0.24 156.06 0.23 C159.69 0.22 161.94 0.5 164.92 1.34 C165.99 1.64 169.26 2.78 169.7 3.01 C169.81 3.07 170.41 3.36 171.04 3.67 C172.13 4.2 173.23 4.86 174.92 6 C175.37 6.3 176.04 6.75 176.42 6.99 C177.72 7.83 179.23 9.3 180.46 10.92 C181.02 11.66 181.3 12.09 181.91 13.06 C182.3 13.69 182.79 14.47 183 14.8 C183.6 15.71 184.47 17.46 184.47 17.74 C184.47 17.81 184.54 18.04 184.64 18.26 C184.73 18.48 184.95 19.12 185.12 19.69 C185.56 21.12 185.77 21.11 185.94 19.64 C186.01 19.06 186.12 18.75 186.86 17.18 C187.66 15.49 189.02 13.89 190.53 12.87 C192.22 11.73 193.46 11.34 195.34 11.34 C196.49 11.34 196.82 11.39 197.78 11.7 C200.04 12.42 201.47 13.52 202.82 15.56 C203.58 16.72 204.07 17.73 204.59 19.2 C205.05 20.52 205.25 20.62 205.46 19.66 C205.67 18.73 205.94 17.98 206.56 16.69 C206.7 16.39 206.81 16.12 206.81 16.08 C206.81 15.93 208.02 13.54 208.4 12.93 C208.95 12.05 210.45 10.22 211.46 9.2 C212.24 8.41 214.83 6.36 216.14 5.5 C217.08 4.88 218.97 3.85 219.81 3.49 C220.28 3.29 220.77 3.08 220.9 3.02 C223.15 2.04 225.48 1.28 227.61 0.82 C230.42 0.23 235.3 0 238.14 0.33 C239.89 0.54 240.57 0.71 242.29 1.41 C245.89 2.87 247.73 4.44 249.74 7.77 C250.07 8.32 250.55 9.84 250.73 10.92 C251.31 14.35 250.4 18.02 248.26 20.83 C247.09 22.39 244.61 24.54 242.89 25.5 C240.25 26.97 238.68 27.54 235.7 28.14 C231.67 28.94 229.91 29.1 225.15 29.1 C222.91 29.11 221.08 29.14 221.08 29.17 C221.08 29.3 221.89 29.85 222.62 30.22 C223.52 30.67 223.54 30.68 224.94 31.59 C225.53 31.97 226.12 32.39 226.25 32.51 C226.39 32.64 226.54 32.74 226.59 32.74 C226.69 32.74 230 34.92 230.59 35.37 C230.91 35.62 232.05 36.46 232.55 36.83 C234.53 38.28 238.49 41.67 240.02 43.24 C241.43 44.68 242.86 46.19 243.65 47.06 C244 47.45 244.72 48.23 245.25 48.78 C245.79 49.34 246.45 50.06 246.74 50.38 C247.43 51.18 249.69 54.21 250.86 55.91 C251.37 56.66 252.03 57.6 252.32 57.98 C253.89 60.05 255.23 62.13 256.99 65.25 C257.84 66.75 258.7 68.21 258.89 68.5 C259.21 69 263.27 77.1 263.27 77.27 C263.27 77.3 263.41 77.64 263.56 78.01 C263.73 78.37 264.27 79.72 264.77 80.99 C265.27 82.27 265.77 83.52 265.9 83.79 C266.18 84.39 266.94 86.39 267.09 86.94 C267.15 87.17 267.28 87.54 267.37 87.77 C267.46 88 267.68 88.67 267.85 89.26 C268.02 89.84 268.22 90.46 268.29 90.62 C268.7 91.6 269.56 94.5 269.94 96.21 C270.01 96.5 270.16 97.06 270.28 97.45 C270.4 97.85 270.62 98.62 270.77 99.18 C270.91 99.74 271.1 100.43 271.19 100.73 C271.28 101.02 271.38 101.47 271.42 101.73 C271.46 102 271.57 102.58 271.66 103.05 C271.75 103.5 271.91 104.28 272 104.77 C272.1 105.26 272.29 106.16 272.43 106.79 C272.57 107.41 272.75 108.4 272.84 108.99 C272.92 109.57 273.05 110.27 273.12 110.53 C273.18 110.8 273.27 111.36 273.32 111.78 C273.36 112.2 273.47 113.03 273.56 113.62 C273.73 114.66 273.79 115.96 273.68 116.07 C273.65 116.1 272.84 115.87 271.87 115.56 C270.9 115.26 269.63 114.87 269.04 114.7 C268.45 114.53 267.49 114.25 266.9 114.08 C264.02 113.24 262.66 112.87 261.31 112.57 C260.32 112.34 257.38 111.57 256.74 111.37 C255.04 110.83 254.6 110.71 254.06 110.64 C253.74 110.6 253.33 110.51 253.17 110.45 C253.01 110.38 252.5 110.26 252.04 110.18 C250.35 109.85 249.3 109.63 248.95 109.52 C248.75 109.46 248.14 109.32 247.58 109.22 C247.03 109.11 246.07 108.92 245.44 108.8 C244.82 108.67 243.78 108.49 243.13 108.39 C240.77 108.04 239.53 107.85 238.19 107.61 C236.44 107.31 234.62 107.06 232.62 106.84 C231.75 106.74 230.71 106.62 230.3 106.56 C229.9 106.5 229.07 106.41 228.45 106.37 C227.82 106.33 226.81 106.22 226.19 106.13 C225.57 106.04 224.5 105.94 223.81 105.89 C222.64 105.83 221.8 105.76 216.74 105.3 C212 104.87 201.11 104.68 192.79 104.88 C189.55 104.95 186.4 105.07 185.77 105.13 C185.15 105.19 183.37 105.32 181.81 105.42 C180.25 105.52 178.94 105.62 178.89 105.66 C178.84 105.68 177.95 105.77 176.91 105.83 C175.87 105.9 174.35 106.04 173.53 106.13 C172.71 106.22 171.72 106.33 171.34 106.37 C170.94 106.41 169.98 106.52 169.2 106.61 C168.41 106.71 166.8 106.89 165.63 107.03 C162.52 107.39 160.92 107.62 157.31 108.28 C156.72 108.38 155.49 108.6 154.57 108.76 C153.66 108.92 152.59 109.11 152.19 109.17 C151.8 109.25 151.16 109.37 150.77 109.47 C150.38 109.56 149.71 109.69 149.27 109.76 C148.85 109.82 148.34 109.93 148.15 110 C147.95 110.06 147.45 110.16 147.03 110.22 C146.6 110.28 145.9 110.41 145.48 110.51 C145.06 110.61 144.41 110.75 144.05 110.82 C142.34 111.18 141.77 111.31 141.58 111.41 C141.47 111.47 141.11 111.56 140.78 111.6 C140.46 111.65 140.03 111.76 139.82 111.84 C139.62 111.92 139.22 112.03 138.93 112.07 C138.64 112.12 138.17 112.23 137.87 112.32 C137.58 112.41 136.94 112.57 136.45 112.67 C134.54 113.07 134.06 113.18 133.74 113.31 C133.56 113.37 132.83 113.57 132.11 113.74 C130.08 114.21 127.74 114.84 126.58 115.22 C126.22 115.34 125.58 115.54 125.15 115.67 C119.78 117.33 119.65 117.37 119.39 117.37 C119.25 117.37 119.04 117.44 118.91 117.53 C118.78 117.62 118.45 117.73 118.18 117.78 C117.91 117.82 117.59 117.93 117.47 118.03 C117.35 118.12 117.1 118.19 116.92 118.19 C116.61 118.2 116.6 118.16 116.6 117.69 Z" fill="rgb(255,255,255)" fill-opacity="1.0" stroke="rgb(0,0,0)" stroke-opacity="0.0" stroke-width="1" /></svg></g></g><g opacity="1.0" data-layer="iris"><g transform="translate(243.0 334.5) rotate(0) scale(1 1) translate(-83.0 -83.5)"><svg width="166" height="167" viewBox="0 0 166 167" preserveAspectRatio="none"><path d="M0.53 83.54 A82.73 82.73 0 0 1 165.99 83.54 A82.73 82.73 0 0 1 0.53 83.54 Z M30.3 83.54 A52.97 52.97 0 0 0 136.23 83.54 A52.97 52.97 0 0 0 30.3 83.54 Z" fill="rgb(255,255,255)" fill-opacity="1.0" stroke="rgb(0,0,0)" stroke-opacity="0.0" stroke-width="1" /></svg></g></g><g opacity="1.0" data-layer="pupil"><g transform="translate(243.5 334.5) rotate(0) scale(1 1) translate(-47.5 -47.5)"><svg width="95" height="95" viewBox="0 0 95 95" preserveAspectRatio="none"><path d="M0.48 47.54 A46.78 46.78 0 0 1 94.05 47.54 A46.78 46.78 0 0 1 0.48 47.54 Z M54.16 28.47 A13.79 13.79 0 0 0 81.73 28.47 A13.79 13.79 0 0 0 54.16 28.47 Z" fill="rgb(255,255,255)" fill-opacity="1.0" stroke="rgb(0,0,0)" stroke-opacity="0.0" stroke-width="1" /></svg></g></g><g opacity="1.0" data-layer="wordmark"><g transform="translate(1088.5 281.0) rotate(0) scale(1 1) translate(-550.5 -110.0)"><svg width="1101" height="220" viewBox="0 0 1101 220" preserveAspectRatio="none" overflow="hidden"><path d="M397 -10Q322 -10 256.5 17.5Q191 45 141.5 95.0Q92 145 64.5 210.5Q37 276 37 352Q37 429 65.0 494.5Q93 560 143.0 609.5Q193 659 260.0 686.5Q327 714 405 714Q492 714 565.0 681.5Q638 649 686 590L594 498Q561 541 512.0 564.0Q463 587 404 587Q337 587 285.5 557.5Q234 528 205.0 475.5Q176 423 176 353Q176 283 204.5 229.5Q233 176 282.5 146.0Q332 116 396 116Q462 116 509.0 140.5Q556 165 581.0 212.5Q606 260 606 329L695 268L388 271V389H746V370Q746 244 701.0 159.5Q656 75 577.5 32.5Q499 -10 397 -10Z" transform="matrix(0.3 0 0 -0.3 -11.1 216.9)" fill="rgb(255, 255, 255)" fill-opacity="1.0" stroke="rgb(0, 0, 0)" stroke-opacity="1.0" stroke-width="0.0" paint-order="stroke fill" /><path d="M250 0 22 703H156L325 162H280L446 703H547L713 162H667L837 703H971L742 0H641L474 540H518L352 0Z" transform="matrix(0.3 0 0 -0.3 217.5 216.9)" fill="rgb(255, 255, 255)" fill-opacity="1.0" stroke="rgb(0, 0, 0)" stroke-opacity="1.0" stroke-width="0.0" paint-order="stroke fill" /><path d="M260 -10Q194 -10 141.0 23.0Q88 56 58.0 113.0Q28 170 28 241Q28 313 58.0 370.0Q88 427 141.0 460.0Q194 493 260 493Q312 493 353.0 472.0Q394 451 418.5 413.5Q443 376 445 329V155Q443 107 418.5 70.0Q394 33 353.0 11.5Q312 -10 260 -10ZM284 111Q339 111 373.0 147.5Q407 184 407 242Q407 280 391.5 309.5Q376 339 348.5 355.5Q321 372 284 372Q248 372 220.5 355.5Q193 339 177.5 309.5Q162 280 162 242Q162 203 177.5 173.5Q193 144 220.5 127.5Q248 111 284 111ZM400 0V130L421 248L400 364V483H530V0Z" transform="matrix(0.3 0 0 -0.3 495.29999999999995 216.9)" fill="rgb(255, 255, 255)" fill-opacity="1.0" stroke="rgb(0, 0, 0)" stroke-opacity="1.0" stroke-width="0.0" paint-order="stroke fill" /><path d="M129 0V684H260V0ZM16 368V483H373V368Z" transform="matrix(0.3 0 0 -0.3 671.6999999999999 216.9)" fill="rgb(255, 255, 255)" fill-opacity="1.0" stroke="rgb(0, 0, 0)" stroke-opacity="1.0" stroke-width="0.0" paint-order="stroke fill" /><path d="M286 -10Q212 -10 153.0 23.0Q94 56 60.0 113.0Q26 170 26 241Q26 313 60.0 370.0Q94 427 153.5 460.5Q213 494 286 494Q343 494 391.0 473.0Q439 452 474 413L390 328Q371 349 344.5 360.0Q318 371 286 371Q250 371 221.5 354.5Q193 338 176.5 309.5Q160 281 160 242Q160 204 176.5 174.5Q193 145 221.5 128.5Q250 112 286 112Q319 112 345.5 123.5Q372 135 391 157L476 72Q439 32 391.0 11.0Q343 -10 286 -10Z" transform="matrix(0.3 0 0 -0.3 784.8 216.9)" fill="rgb(255, 255, 255)" fill-opacity="1.0" stroke="rgb(0, 0, 0)" stroke-opacity="1.0" stroke-width="0.0" paint-order="stroke fill" /><path d="M383 0V277Q383 320 356.0 347.0Q329 374 286 374Q258 374 236.0 362.0Q214 350 201.5 328.0Q189 306 189 277L138 303Q138 360 162.0 402.5Q186 445 228.5 469.0Q271 493 326 493Q381 493 423.5 469.0Q466 445 490.0 403.0Q514 361 514 306V0ZM58 0V723H189V0Z" transform="matrix(0.3 0 0 -0.3 932.4 216.9)" fill="rgb(255, 255, 255)" fill-opacity="1.0" stroke="rgb(0, 0, 0)" stroke-opacity="1.0" stroke-width="0.0" paint-order="stroke fill" /></svg></g></g></svg>