<?xml version='1.0' encoding='utf-8'?>
<svg xmlns="http://www.w3.org/2000/svg" width="512" height="512" viewBox="0 0 512 512"><defs><mask id="vixl-operand-1" maskUnits="userSpaceOnUse" x="0" y="0" width="480" height="480" mask-type="alpha"><g transform="translate(240.0 240.0) rotate(0) scale(1 1) translate(-240.0 -240.0)"><ellipse cx="240.0" cy="240.0" rx="240.0" ry="240.0" fill="rgb(59,36,24)" fill-opacity="1.0" stroke="rgb(0,0,0)" stroke-opacity="0.0" stroke-width="1" /></g></mask><mask id="vixl-operand-2" maskUnits="userSpaceOnUse" x="0" y="0" width="480" height="480" mask-type="alpha"><g transform="translate(247.0 193.0) rotate(336) scale(1 1) translate(-92.5 -126.0)"><rect width="185" height="252" fill="rgb(59,36,24)" mask="url(#vixl-boolean-5)" /></g></mask><mask id="vixl-operand-3" maskUnits="userSpaceOnUse" x="0" y="0" width="185" height="252" mask-type="alpha"><g transform="translate(92.5 126.0) rotate(0) scale(1 1) translate(-92.5 -126.0)"><svg width="185" height="252" viewBox="0 0 220 300" preserveAspectRatio="none"><path d="M110 0 C171 0 220 63 220 140 C220 228 168 300 105 300 C47 300 0 237 0 160 C0 72 49 0 110 0 Z" fill="rgb(59,36,24)" fill-opacity="1.0" stroke="rgb(0,0,0)" stroke-opacity="0.0" stroke-width="0" /></svg></g></mask><mask id="vixl-operand-4" maskUnits="userSpaceOnUse" x="0" y="0" width="185" height="252" mask-type="alpha"><g transform="translate(92.5 126.0) rotate(0) scale(1 1) translate(-92.5 -126.0)"><svg width="185" height="252" viewBox="0 0 220 300" preserveAspectRatio="none"><path d="M116 -12 C72 60 156 104 108 156 C62 206 140 248 98 312 L118 312 C162 248 84 206 130 156 C178 104 94 60 138 -12 Z" fill="rgb(59,36,24)" fill-opacity="1.0" stroke="rgb(0,0,0)" stroke-opacity="0.0" stroke-width="1" /></svg></g></mask><mask id="vixl-boolean-5" maskUnits="userSpaceOnUse" x="0" y="0" width="185" height="252"><rect width="185" height="252" fill="white" mask="url(#vixl-operand-3)" /><rect width="185" height="252" fill="black" mask="url(#vixl-operand-4)" /></mask><mask id="vixl-operand-6" maskUnits="userSpaceOnUse" x="0" y="0" width="480" height="480" mask-type="alpha"><g transform="translate(240.0 358.0) rotate(0) scale(1 1) translate(-240.0 -6.0)"><rect width="480" height="12" rx="0" fill="rgb(59,36,24)" fill-opacity="1.0" stroke="rgb(0,0,0)" stroke-opacity="0.0" stroke-width="1" /></g></mask><mask id="vixl-operand-7" maskUnits="userSpaceOnUse" x="0" y="0" width="480" height="480" mask-type="alpha"><g transform="translate(240.0 389.0) rotate(0) scale(1 1) translate(-240.0 -7.0)"><rect width="480" height="14" rx="0" fill="rgb(59,36,24)" fill-opacity="1.0" stroke="rgb(0,0,0)" stroke-opacity="0.0" stroke-width="1" /></g></mask><mask id="vixl-operand-8" maskUnits="userSpaceOnUse" x="0" y="0" width="480" height="480" mask-type="alpha"><g transform="translate(240.0 422.0) rotate(0) scale(1 1) translate(-240.0 -8.0)"><rect width="480" height="16" rx="0" fill="rgb(59,36,24)" fill-opacity="1.0" stroke="rgb(0,0,0)" stroke-opacity="0.0" stroke-width="1" /></g></mask><mask id="vixl-operand-9" maskUnits="userSpaceOnUse" x="0" y="0" width="480" height="480" mask-type="alpha"><g transform="translate(240.0 457.0) rotate(0) scale(1 1) translate(-240.0 -9.0)"><rect width="480" height="18" rx="0" fill="rgb(59,36,24)" fill-opacity="1.0" stroke="rgb(0,0,0)" stroke-opacity="0.0" stroke-width="1" /></g></mask><mask id="vixl-boolean-10" maskUnits="userSpaceOnUse" x="0" y="0" width="480" height="480"><rect width="480" height="480" fill="white" mask="url(#vixl-operand-1)" /><rect width="480" height="480" fill="black" mask="url(#vixl-operand-2)" /><rect width="480" height="480" fill="black" mask="url(#vixl-operand-6)" /><rect width="480" height="480" fill="black" mask="url(#vixl-operand-7)" /><rect width="480" height="480" fill="black" mask="url(#vixl-operand-8)" /><rect width="480" height="480" fill="black" mask="url(#vixl-operand-9)" /></mask></defs><g opacity="1.0" data-layer="mark"><g transform="translate(256.0 256.0) rotate(0) scale(1 1) translate(-240.0 -240.0)"><rect width="480" height="480" fill="rgb(59,36,24)" mask="url(#vixl-boolean-10)" /></g></g></svg>