<?xml version='1.0' encoding='utf-8'?>
<svg xmlns="http://www.w3.org/2000/svg" width="512" height="512" viewBox="0 0 512 512"><defs /><g opacity="1.0" data-layer="sun"><g transform="translate(256.0 256.0) rotate(0) scale(1 1) translate(-240.0 -240.0)"><ellipse cx="240.0" cy="240.0" rx="240.0" ry="240.0" fill="rgb(217,100,43)" fill-opacity="1.0" stroke="rgb(0,0,0)" stroke-opacity="0.0" stroke-width="1" /></g></g><g opacity="1.0" data-layer="mark"><g transform="translate(256.0 256.0) rotate(0) scale(1 1) translate(-240.0 -240.0)"><path d="M480 240 C480 280.451 469.993 318.565 452.319 352 L27.681 352 C10.007 318.565 0 280.451 0 240 C0 107.452 107.452 0 240 0 C372.548 0 480 107.452 480 240 Z M445.526 364 C441.785 370.188 437.772 376.194 433.504 382 L46.496 382 C42.228 376.194 38.215 370.188 34.474 364 Z M422.39 396 C417.005 402.29 411.3 408.299 405.3 414 L74.7 414 C68.7 408.299 62.995 402.29 57.61 396 Z M386.648 430 C378.139 436.577 369.176 442.596 359.814 448 L120.186 448 C110.824 442.596 101.861 436.577 93.352 430 Z M320.965 466 C295.671 475.063 268.412 480 240 480 C211.588 480 184.329 475.063 159.035 466 Z M328.086 147.703 C304.826 95.46 255.878 64.716 212.461 72.715 C214.429 130.343 282.209 138.313 264.414 190.764 C247.603 240.589 309.265 249.236 309.797 300.409 C345.738 271.517 354.689 207.454 328.086 147.703 Z M165.914 238.297 C192.167 297.264 249.615 329.522 294.133 309.939 C294.42 257.035 230.425 248.935 247.514 198.288 C265.536 145.165 195.776 137.67 195.517 77.997 C148.847 98.997 135.898 170.88 165.914 238.297 Z" fill="rgb(59,36,24)" fill-rule="evenodd" /></g></g></svg>